<svg width="27" height="24" viewBox="0 0 27 24" fill="none" xmlns="http://www.w3.org/2000/svg">
<path fill-rule="evenodd" clip-rule="evenodd" d="M20.8272 20.608L18.1113 18.2067L19.1152 21.4461L20.8272 20.608ZM5.96827 0.590193C5.94299 0.410057 6.03667 0.24052 6.20786 0.156714C6.37905 0.0729065 6.59604 0.090357 6.76271 0.201278L13.99 5.01152L21.8754 2.17186C22.0573 2.10639 22.2724 2.14532 22.4255 2.2714C22.5787 2.39746 22.6414 2.58741 22.5861 2.75708L20.185 10.1126L26.1548 16.1692C26.2925 16.3089 26.3318 16.5025 26.2552 16.6642C26.1787 16.8259 26.0005 16.9259 25.7996 16.9198L17.0883 16.6556L12.8925 23.2384C12.7957 23.3902 12.6049 23.4709 12.4044 23.4448C12.204 23.4187 12.0311 23.2905 11.9623 23.1171L8.97946 15.5982L0.416528 13.6101C0.219016 13.5642 0.0617734 13.4205 0.0144746 13.2426C-0.0328746 13.0647 0.038458 12.8856 0.196847 12.7845L7.06463 8.40181L5.96827 0.590193ZM6.19348 19.7675L7.72265 16.8572L4.66073 18.5079L6.19348 19.7675ZM25.2829 8.3667L22.0761 9.7987L25.7611 10.1449L25.2829 8.3667ZM1.5726 7.08953L5.23845 7.67184L2.32588 5.4669L1.5726 7.08953ZM13.4611 1.42412e-07L14.1769 3.28347L15.4649 0.268949L13.4611 1.42412e-07Z" fill="black"/>
</svg>
